<svg xmlns="http://www.w3.org/2000/svg" width="29" height="29" viewBox="0 0 29 29">
    <path fill="#FFF" fill-rule="nonzero" d="M14.416 0C6.498 0 0 6.536 0 14.5 0 21.296 4.741 27.47 11.038 29v-4.797c-.624.137-1.198.141-1.833-.047-.852-.253-1.545-.824-2.059-1.694-.327-.556-.908-1.159-1.513-1.114l-.149-1.693c1.31-.113 2.443.802 3.115 1.939.299.505.643.801 1.084.932.427.127.885.066 1.418-.124.134-1.074.624-1.476.993-2.043-3.755-.564-5.251-2.568-5.845-4.15-.787-2.1-.365-4.722 1.027-6.38.027-.033.076-.117.057-.176-.638-1.939.14-3.543.168-3.713.737.219.856-.22 3.2 1.211l.404.245c.17.102.116.044.286.03.978-.266 2.01-.414 3.025-.427 1.024.013 2.049.16 3.067.439l.132.013c-.012-.002.035-.009.114-.056 2.927-1.783 2.822-1.2 3.607-1.457.028.17.795 1.8.164 3.715-.085.264 2.537 2.679 1.084 6.556-.594 1.582-2.09 3.586-5.845 4.15.48.738 1.06 1.13 1.056 2.653V29c6.297-1.53 11.038-7.704 11.038-14.5 0-7.964-6.498-14.5-14.417-14.5z"/>
</svg>
