<svg xmlns="http://www.w3.org/2000/svg" width="29" height="29" viewBox="0 0 29 29">
    <g fill="#FFF" fill-rule="nonzero">
        <path d="M19.823 0H9.01C4.035 0 0 4.058 0 9.063v10.874C0 24.942 4.035 29 9.01 29h10.813c4.975 0 9.01-4.058 9.01-9.063V9.063c0-5.004-4.035-9.062-9.01-9.062zm6.307 19.938c0 3.498-2.83 6.343-6.307 6.343H9.01c-3.478 0-6.307-2.845-6.307-6.343V9.063c0-3.499 2.83-6.344 6.307-6.344h10.813c3.478 0 6.307 2.845 6.307 6.344v10.874z"/>
        <path d="M14.416 7.25c-3.98 0-7.208 3.246-7.208 7.25s3.228 7.25 7.208 7.25c3.981 0 7.209-3.246 7.209-7.25s-3.228-7.25-7.209-7.25zm0 11.781c-2.483 0-4.505-2.033-4.505-4.531 0-2.5 2.022-4.531 4.505-4.531 2.484 0 4.506 2.032 4.506 4.531 0 2.498-2.022 4.531-4.506 4.531z"/>
        <ellipse cx="22.165" cy="6.706" rx="1" ry="1"/>
    </g>
</svg>
