<svg xmlns="http://www.w3.org/2000/svg" width="29" height="29" viewBox="0 0 29 29">
    <path fill="#FFF" fill-rule="nonzero" d="M26.65 0H2.125C.952 0 0 .928 0 2.074v24.792c0 1.146.952 2.075 2.126 2.075H26.65c1.174 0 2.125-.93 2.125-2.075V2.074C28.774.928 27.824 0 26.649 0zM8.722 24.225H4.376V11.16h4.347v13.066zM6.55 9.374h-.03c-1.457 0-2.402-1.003-2.402-2.258 0-1.281.973-2.257 2.46-2.257s2.401.976 2.43 2.257c0 1.255-.943 2.258-2.458 2.258zm17.845 14.851h-4.346v-6.99c0-1.757-.63-2.956-2.202-2.956-1.202 0-1.916.809-2.23 1.59-.115.278-.144.668-.144 1.058v7.298h-4.345s.057-11.84 0-13.066h4.346v1.852c.577-.89 1.608-2.16 3.915-2.16 2.861 0 5.006 1.867 5.006 5.882v7.492zm-8.934-11.13c.013-.021.032-.048.05-.073v.074h-.05z"/>
</svg>
