<svg xmlns="http://www.w3.org/2000/svg" width="29" height="24" viewBox="0 0 29 24">
    <path fill="#FFF" fill-rule="nonzero" d="M28.833 2.78c-1.061.468-2.2.786-3.396.927a5.918 5.918 0 0 0 2.6-3.256 11.956 11.956 0 0 1-3.759 1.43 5.91 5.91 0 0 0-4.317-1.86c-3.266 0-5.915 2.637-5.915 5.887 0 .462.052.912.153 1.342A16.817 16.817 0 0 1 2.01 1.097a5.88 5.88 0 0 0 1.83 7.861A5.935 5.935 0 0 1 1.16 8.22v.074c0 2.852 2.04 5.233 4.744 5.774a6.015 6.015 0 0 1-1.558.207 5.7 5.7 0 0 1-1.114-.11 5.915 5.915 0 0 0 5.524 4.09 11.9 11.9 0 0 1-7.345 2.517c-.478 0-.948-.028-1.411-.08a16.772 16.772 0 0 0 9.066 2.65c10.88 0 16.828-8.974 16.828-16.756l-.02-.763a11.784 11.784 0 0 0 2.959-3.042z"/>
</svg>
